<svg width="141" height="25" viewBox="0 0 141 25" fill="none" xmlns="http://www.w3.org/2000/svg">
<g clip-path="url(#clip0)">
<path d="M32.6567 21H36.9575V16.043H39.8638C43.6372 16.043 46.0747 13.7227 46.0747 10.1016V10.0781C46.0747 6.45703 43.6372 4.08984 39.8638 4.08984H32.6567V21ZM38.8325 7.38281C40.6489 7.38281 41.727 8.32031 41.727 10.0781V10.1016C41.727 11.8594 40.6489 12.8086 38.8325 12.8086H36.9575V7.38281H38.8325ZM47.0539 21H51.2141V4.08984H47.0539V21ZM56.4003 21.1758C58.0644 21.1758 59.33 20.4492 60.0566 19.1953H60.1386V21H64.287V12.293C64.287 9.70312 62.0253 7.96875 58.5917 7.96875C55.0409 7.96875 52.9198 9.66797 52.7206 12.1523L52.7089 12.3047H56.4472L56.4706 12.1875C56.6112 11.5312 57.2675 11.0156 58.3808 11.0156C59.5409 11.0156 60.1386 11.5898 60.1386 12.5156V13.1484L57.2323 13.3359C53.9394 13.5586 52.0878 14.9062 52.0878 17.3086V17.3203C52.0878 19.5469 53.8339 21.1758 56.4003 21.1758ZM56.1659 17.0508V17.0391C56.1659 16.2773 56.7402 15.7969 57.9003 15.7266L60.1386 15.5742V16.4297C60.1386 17.5078 59.1894 18.3047 57.8534 18.3047C56.8339 18.3047 56.1659 17.8477 56.1659 17.0508ZM65.5592 21H69.7194V13.7578C69.7194 12.3398 70.5397 11.3555 71.8639 11.3555C73.2233 11.3555 73.9147 12.2109 73.9147 13.6758V21H78.0631V12.7852C78.0631 9.76172 76.4811 7.96875 73.6803 7.96875C71.7467 7.96875 70.4342 8.88281 69.8014 10.4883H69.7194V8.23828H65.5592V21ZM79.3002 21H83.4603V13.7578C83.4603 12.3398 84.2806 11.3555 85.6048 11.3555C86.9642 11.3555 87.6556 12.2109 87.6556 13.6758V21H91.8041V12.7852C91.8041 9.76172 90.222 7.96875 87.4212 7.96875C85.4877 7.96875 84.1752 8.88281 83.5423 10.4883H83.4603V8.23828H79.3002V21ZM95.1505 6.86719C96.3575 6.86719 97.2716 5.92969 97.2716 4.81641C97.2716 3.70312 96.3575 2.77734 95.1505 2.77734C93.9552 2.77734 93.0294 3.70312 93.0294 4.81641C93.0294 5.92969 93.9552 6.86719 95.1505 6.86719ZM93.0763 21H97.2247V8.23828H93.0763V21ZM99.575 21H103.735V11.2852H106.102V8.23828H103.618V7.6875C103.618 6.94922 104.098 6.51562 105.247 6.51562C105.563 6.51562 105.891 6.52734 106.126 6.57422V3.99609C105.669 3.90234 104.86 3.82031 104.134 3.82031C100.794 3.82031 99.575 4.98047 99.575 7.5V8.23828H97.8758V11.2852H99.575V21ZM109.414 25.1602C112.519 25.1602 114.535 24.2461 115.578 20.9414L119.644 8.23828H115.261L112.988 17.8828H112.882L110.597 8.23828H106.003L110.398 21L110.304 21.2695C110.093 21.832 109.613 22.1016 108.734 22.1016C108.089 22.1016 107.597 22.0312 107.328 21.9727V24.9844C107.796 25.0664 108.593 25.1602 109.414 25.1602Z" fill="#020503"/>
<path d="M22 5L31.5263 20.75H12.4737L22 5Z" fill="black"/>
</g>
<defs>
<clipPath id="clip0">
<rect width="141" height="25" fill="white"/>
</clipPath>
</defs>
</svg>
